<svg xmlns="http://www.w3.org/2000/svg" viewBox="0 0 800 500" role="img" aria-label="Stylised screenshot of the CampusEats menu page">
  <rect width="800" height="500" fill="#FAF9F6"/>
  <rect width="800" height="56" fill="#1E3A5F"/>
  <circle cx="30" cy="28" r="7" fill="#D9A441"/>
  <circle cx="56" cy="28" r="7" fill="#3D5A80"/>
  <circle cx="82" cy="28" r="7" fill="#FAF9F6" opacity="0.6"/>
  <rect x="560" y="18" width="200" height="20" rx="10" fill="#3D5A80"/>
  <g>
    <rect x="42" y="96" width="220" height="280" rx="14" fill="#FFFFFF" stroke="#E2E0DA" stroke-width="2"/>
    <circle cx="152" cy="176" r="52" fill="#D9A441" opacity="0.28"/>
    <circle cx="152" cy="176" r="32" fill="#D9A441" opacity="0.55"/>
    <rect x="70" y="252" width="164" height="14" rx="7" fill="#E2E0DA"/>
    <rect x="70" y="280" width="120" height="14" rx="7" fill="#E2E0DA"/>
    <rect x="70" y="322" width="90" height="26" rx="13" fill="#1E3A5F"/>
  </g>
  <g>
    <rect x="290" y="96" width="220" height="280" rx="14" fill="#FFFFFF" stroke="#E2E0DA" stroke-width="2"/>
    <circle cx="400" cy="176" r="52" fill="#3D5A80" opacity="0.25"/>
    <circle cx="400" cy="176" r="32" fill="#3D5A80" opacity="0.5"/>
    <rect x="318" y="252" width="164" height="14" rx="7" fill="#E2E0DA"/>
    <rect x="318" y="280" width="120" height="14" rx="7" fill="#E2E0DA"/>
    <rect x="318" y="322" width="90" height="26" rx="13" fill="#1E3A5F"/>
  </g>
  <g>
    <rect x="538" y="96" width="220" height="280" rx="14" fill="#FFFFFF" stroke="#E2E0DA" stroke-width="2"/>
    <circle cx="648" cy="176" r="52" fill="#D9A441" opacity="0.28"/>
    <circle cx="648" cy="176" r="32" fill="#B8862F" opacity="0.45"/>
    <rect x="566" y="252" width="164" height="14" rx="7" fill="#E2E0DA"/>
    <rect x="566" y="280" width="120" height="14" rx="7" fill="#E2E0DA"/>
    <rect x="566" y="322" width="90" height="26" rx="13" fill="#1E3A5F"/>
  </g>
  <text x="42" y="452" font-family="Georgia, serif" font-size="30" fill="#1E3A5F">CampusEats</text>
</svg>
