<svg xmlns="http://www.w3.org/2000/svg" viewBox="0 0 800 500" role="img" aria-label="Stylised screenshot of the NairaWise spending chart">
  <rect width="800" height="500" fill="#FAF9F6"/>
  <rect width="800" height="56" fill="#1E3A5F"/>
  <circle cx="30" cy="28" r="7" fill="#D9A441"/>
  <circle cx="56" cy="28" r="7" fill="#3D5A80"/>
  <circle cx="82" cy="28" r="7" fill="#FAF9F6" opacity="0.6"/>
  <rect x="42" y="96" width="230" height="150" rx="14" fill="#FFFFFF" stroke="#E2E0DA" stroke-width="2"/>
  <text x="66" y="150" font-family="Georgia, serif" font-size="40" fill="#1E3A5F">&#8358;12,400</text>
  <rect x="66" y="176" width="140" height="12" rx="6" fill="#E2E0DA"/>
  <rect x="66" y="204" width="100" height="12" rx="6" fill="#D9A441"/>
  <rect x="42" y="270" width="230" height="156" rx="14" fill="#FFFFFF" stroke="#E2E0DA" stroke-width="2"/>
  <circle cx="112" cy="348" r="44" fill="none" stroke="#3D5A80" stroke-width="16"/>
  <path d="M112 304 a44 44 0 0 1 42 31" fill="none" stroke="#D9A441" stroke-width="16"/>
  <rect x="182" y="322" width="66" height="10" rx="5" fill="#E2E0DA"/>
  <rect x="182" y="346" width="52" height="10" rx="5" fill="#E2E0DA"/>
  <rect x="182" y="370" width="60" height="10" rx="5" fill="#E2E0DA"/>
  <rect x="302" y="96" width="456" height="330" rx="14" fill="#FFFFFF" stroke="#E2E0DA" stroke-width="2"/>
  <line x1="330" y1="390" x2="730" y2="390" stroke="#E2E0DA" stroke-width="2"/>
  <rect x="348" y="290" width="44" height="100" rx="6" fill="#1E3A5F"/>
  <rect x="412" y="240" width="44" height="150" rx="6" fill="#3D5A80"/>
  <rect x="476" y="180" width="44" height="210" rx="6" fill="#1E3A5F"/>
  <rect x="540" y="310" width="44" height="80" rx="6" fill="#3D5A80"/>
  <rect x="604" y="150" width="44" height="240" rx="6" fill="#D9A441"/>
  <rect x="668" y="264" width="44" height="126" rx="6" fill="#1E3A5F"/>
  <text x="330" y="140" font-family="Georgia, serif" font-size="30" fill="#1E3A5F">NairaWise</text>
</svg>
