<svg xmlns="http://www.w3.org/2000/svg" viewBox="0 0 800 500" role="img" aria-label="Stylised screenshot of the StudyCircle weekly schedule view">
  <rect width="800" height="500" fill="#FAF9F6"/>
  <rect width="800" height="56" fill="#1E3A5F"/>
  <circle cx="30" cy="28" r="7" fill="#D9A441"/>
  <circle cx="56" cy="28" r="7" fill="#3D5A80"/>
  <circle cx="82" cy="28" r="7" fill="#FAF9F6" opacity="0.6"/>
  <rect x="42" y="96" width="180" height="330" rx="14" fill="#FFFFFF" stroke="#E2E0DA" stroke-width="2"/>
  <rect x="66" y="124" width="132" height="16" rx="8" fill="#1E3A5F"/>
  <rect x="66" y="160" width="100" height="12" rx="6" fill="#E2E0DA"/>
  <rect x="66" y="188" width="118" height="12" rx="6" fill="#E2E0DA"/>
  <rect x="66" y="216" width="88" height="12" rx="6" fill="#E2E0DA"/>
  <rect x="66" y="256" width="132" height="30" rx="15" fill="#D9A441"/>
  <g stroke="#E2E0DA" stroke-width="2" fill="#FFFFFF">
    <rect x="252" y="96" width="98" height="98" rx="10"/>
    <rect x="362" y="96" width="98" height="98" rx="10"/>
    <rect x="472" y="96" width="98" height="98" rx="10"/>
    <rect x="582" y="96" width="98" height="98" rx="10"/>
    <rect x="252" y="212" width="98" height="98" rx="10"/>
    <rect x="362" y="212" width="98" height="98" rx="10"/>
    <rect x="472" y="212" width="98" height="98" rx="10"/>
    <rect x="582" y="212" width="98" height="98" rx="10"/>
    <rect x="252" y="328" width="98" height="98" rx="10"/>
    <rect x="362" y="328" width="98" height="98" rx="10"/>
    <rect x="472" y="328" width="98" height="98" rx="10"/>
    <rect x="582" y="328" width="98" height="98" rx="10"/>
  </g>
  <rect x="362" y="96" width="98" height="98" rx="10" fill="#D9A441" opacity="0.75"/>
  <rect x="472" y="212" width="98" height="98" rx="10" fill="#3D5A80" opacity="0.75"/>
  <rect x="582" y="328" width="98" height="98" rx="10" fill="#D9A441" opacity="0.45"/>
  <text x="252" y="470" font-family="Georgia, serif" font-size="30" fill="#1E3A5F">StudyCircle</text>
</svg>
